<?xml version="1.0" encoding="UTF-8" standalone="no"?>
<svg width="362px" height="354px" viewBox="0 0 362 354" version="1.1" xmlns="http://www.w3.org/2000/svg" xmlns:xlink="http://www.w3.org/1999/xlink" xmlns:sketch="http://www.bohemiancoding.com/sketch/ns">
    <!-- Generator: Sketch 3.5.1 (25234) - http://www.bohemiancoding.com/sketch -->
    <title>amtalk</title>
    <desc>Created with Sketch.</desc>
    <defs>
        <radialGradient cx="5.6750413%" cy="91.1531755%" fx="5.6750413%" fy="91.1531755%" r="131.172022%" id="radialGradient-1">
            <stop stop-color="#18FF00" offset="0%"></stop>
            <stop stop-color="#115000" offset="100%"></stop>
        </radialGradient>
        <radialGradient cx="18.4710721%" cy="24.2468097%" fx="18.4710721%" fy="24.2468097%" r="109.424958%" id="radialGradient-2">
            <stop stop-color="#67C0FD" offset="0%"></stop>
            <stop stop-color="#004890" offset="100%"></stop>
        </radialGradient>
        <radialGradient cx="17.0284551%" cy="76.8714427%" fx="17.0284551%" fy="76.8714427%" r="105.266095%" id="radialGradient-3">
            <stop stop-color="#FFEA00" offset="0%"></stop>
            <stop stop-color="#FF8300" offset="100%"></stop>
        </radialGradient>
    </defs>
    <g id="Page-1" stroke="none" stroke-width="1" fill="none" fill-rule="evenodd" sketch:type="MSPage">
        <g id="chat-group" sketch:type="MSLayerGroup">
            <g id="Group" sketch:type="MSShapeGroup">
                <path d="M143,197 L361.777,197 L361.777,319 L273.495539,319 C264.727038,319 245.753723,345.336227 236.985222,345.336227 C232.452221,345.336227 238.124035,319 233.591034,319 L143,319 L143,197 Z" id="Rectangle-3" fill="url(#radialGradient-1)"></path>
                <path d="M354.277,204.842 C358.42,204.842 361.777,201.484 361.777,197.342 C361.777,193.2 358.42,189.842 354.277,189.842 L143.027,189.842 C138.885,189.842 135.527,193.2 135.527,197.342 L135.527,318.226 C135.527,322.368 138.885,325.726 143.027,325.726 L223.879,325.726 L223.879,345.952 C223.879,348.81 225.504,351.42 228.068,352.682 C229.118,353.199 230.251,353.452 231.378,353.452 C233.005,353.452 234.619,352.923 235.957,351.892 L269.912,325.725 L354.277,325.725 C358.42,325.725 361.777,322.367 361.777,318.225 L361.777,236.937 C361.777,232.795 358.42,229.437 354.277,229.437 C350.134,229.437 346.777,232.795 346.777,236.937 L346.777,310.725 L267.357,310.725 C265.701,310.725 264.091,311.273 262.779,312.285 L238.879,330.703 L238.879,318.225 C238.879,314.083 235.522,310.725 231.379,310.725 L150.527,310.725 L150.527,204.842 L354.277,204.842 L354.277,204.842 Z" id="Shape" fill="#000000"></path>
                <path d="M8,40 L160,40 L160,167 L113.331017,167 C109.195355,167 107.686726,174.585083 103.551064,174.585083 C99.8633039,174.585083 93.5485118,167 89.8607522,167 L84.6454382,167 L8,167 L8,40 Z" id="Rectangle-1" fill="url(#radialGradient-2)"></path>
                <path d="M166.752,159.609 L166.752,38.725 C166.752,34.583 163.394,31.225 159.252,31.225 L7.5,31.225 C3.358,31.225 0,34.583 0,38.725 L0,159.609 C0,163.751 3.358,167.109 7.5,167.109 L37.939,167.109 C42.081,167.109 45.439,163.751 45.439,159.609 C45.439,155.467 42.081,152.109 37.939,152.109 L15,152.109 L15,46.225 L151.752,46.225 L151.752,152.109 L110.925,152.109 C106.783,152.109 103.425,155.467 103.425,159.609 L103.425,172.087 L79.524,153.669 C76.242,151.139 71.533,151.75 69.005,155.031 C66.476,158.312 67.087,163.021 70.367,165.55 L106.346,193.277 C107.684,194.308 109.299,194.837 110.925,194.837 C112.052,194.837 113.184,194.583 114.234,194.067 C116.799,192.805 118.424,190.195 118.424,187.337 L118.424,167.11 L159.251,167.11 C163.394,167.109 166.752,163.751 166.752,159.609 L166.752,159.609 Z" id="Shape" fill="#000000"></path>
                <path d="M205,0.425 L357,0.425 L357,116.91374 L288.254334,116.91374 C280.465487,116.91374 264.228952,139.967667 256.440105,139.967667 C252.360885,139.967667 256.729353,116.91374 252.650132,116.91374 L205,116.91374 L205,0.425 Z" id="Rectangle-2" fill="url(#radialGradient-3)"></path>
                <path d="M354.377,0.425 L243.938,0.425 C239.795,0.425 236.438,3.783 236.438,7.925 C236.438,12.067 239.795,15.425 243.938,15.425 L346.876,15.425 L346.876,111.303 L286.93,111.303 C285.274,111.303 283.664,111.851 282.352,112.862 L258.451,131.281 L258.451,118.803 C258.451,114.661 255.094,111.303 250.951,111.303 L210.125,111.303 L210.125,7.925 C210.125,3.783 206.768,0.425 202.625,0.425 C198.482,0.425 195.125,3.783 195.125,7.925 L195.125,118.803 C195.125,122.945 198.482,126.303 202.625,126.303 L243.451,126.303 L243.451,146.529 C243.451,149.387 245.076,151.997 247.64,153.259 C248.69,153.775 249.823,154.029 250.95,154.029 C252.577,154.029 254.191,153.5 255.529,152.47 L289.485,126.303 L354.377,126.303 C358.52,126.303 361.877,122.945 361.877,118.803 L361.877,7.925 C361.877,3.783 358.52,0.425 354.377,0.425 L354.377,0.425 Z" id="Shape" fill="#000000"></path>
            </g>
        </g>
    </g>
</svg>