<?xml version="1.0" encoding="iso-8859-1"?>
<!-- Generator: Adobe Illustrator 16.0.0, SVG Export Plug-In . SVG Version: 6.00 Build 0)  -->
<!DOCTYPE svg PUBLIC "-//W3C//DTD SVG 1.1//EN" "http://www.w3.org/Graphics/SVG/1.1/DTD/svg11.dtd">
<svg xmlns="http://www.w3.org/2000/svg" xmlns:xlink="http://www.w3.org/1999/xlink" version="1.1" id="Capa_1" x="0px" y="0px" width="512px" height="512px" viewBox="0 0 32 32" style="enable-background:new 0 0 32 32;" xml:space="preserve">
<g>
	<g>
		<path d="M24.688,9.698c-0.289-0.114-0.603-0.146-0.908-0.091l-1.4,0.249c-0.38,0.067-0.654,0.399-0.652,0.786l0.107,12.011    c0,0,0.021,0.294-0.227,0.796l5.062,2.604l-10.361,0.047c-0.384,0-0.695,0.313-0.695,0.697v0.963c0,0.387,0.313,0.698,0.699,0.698    h13.383c0.316,0,0.627-0.097,0.888-0.276l0.967-0.668C31.832,27.32,32,26.999,32,26.659v-13.08c0-0.602-0.368-1.143-0.928-1.364    L24.688,9.698z M29.162,24.867c0,0.209-0.107,0.403-0.285,0.518c-0.177,0.111-0.398,0.125-0.589,0.035l-5.024-2.383    c-0.212-0.101-0.348-0.312-0.35-0.545L22.798,12.43c-0.002-0.206,0.099-0.398,0.269-0.514c0.17-0.115,0.389-0.137,0.578-0.059    l5.143,2.131c0.229,0.095,0.377,0.317,0.377,0.565L29.162,24.867L29.162,24.867z" fill="#006DF0"/>
		<circle cx="12.058" cy="7.215" r="5.367" fill="#006DF0"/>
		<path d="M20.938,21.302c-0.396-1.106-1.479-1.703-2.728-1.287c-2.28,0.758-5.313,1.504-6.988,0.211    c-0.938-0.725-1.774-2.222-1.5-3.115c1.327-3.191-2.023-7.183-4.718-7.168C2.606,9.952,0,12.828,0,12.828v18.708l3.308,0.024    c0.628-3.617,1.599-6.271,2.494-8.104c-2.135-4.108-1.45-7.438-1.446-7.516c0,0,0.652,5.726,5.51,8.431    c1.098,0.611,2.423,0.835,3.884,0.835c1.739-0.001,3.709-0.395,5.9-1.178C20.758,23.632,21.334,22.412,20.938,21.302z" fill="#006DF0"/>
		<path d="M21.816,6.865C21.587,7.048,21.55,7.38,21.732,7.61c0.104,0.133,0.262,0.203,0.418,0.203c0.117,0,0.23-0.038,0.33-0.114    c0.063-0.049,1.601-1.216,3.707-0.112c0.261,0.138,0.584,0.036,0.721-0.225c0.136-0.261,0.035-0.583-0.227-0.72    C23.943,5.208,21.902,6.796,21.816,6.865z" fill="#006DF0"/>
		<path d="M28.084,5.036c0.137-0.261,0.036-0.583-0.225-0.72c-4.524-2.371-7.865,0.23-8.004,0.343    c-0.229,0.184-0.27,0.52-0.084,0.749c0.104,0.132,0.261,0.2,0.418,0.2c0.115,0,0.232-0.038,0.332-0.117    c0.027-0.024,2.929-2.284,6.842-0.231C27.625,5.397,27.947,5.296,28.084,5.036z" fill="#006DF0"/>
		<path d="M18.609,3.244c0.117,0,0.232-0.038,0.332-0.115c0.174-0.139,4.322-3.334,10.002-0.354c0.261,0.135,0.582,0.036,0.72-0.225    c0.137-0.26,0.036-0.583-0.224-0.72c-6.316-3.312-10.967,0.309-11.164,0.465c-0.229,0.183-0.268,0.518-0.084,0.748    C18.297,3.175,18.453,3.244,18.609,3.244z" fill="#006DF0"/>
	</g>
</g>
<g>
</g>
<g>
</g>
<g>
</g>
<g>
</g>
<g>
</g>
<g>
</g>
<g>
</g>
<g>
</g>
<g>
</g>
<g>
</g>
<g>
</g>
<g>
</g>
<g>
</g>
<g>
</g>
<g>
</g>
</svg>
